<?xml version="1.0" encoding="iso-8859-1"?>
<!-- Generator: Adobe Illustrator 16.0.0, SVG Export Plug-In . SVG Version: 6.00 Build 0)  -->
<!DOCTYPE svg PUBLIC "-//W3C//DTD SVG 1.1//EN" "http://www.w3.org/Graphics/SVG/1.1/DTD/svg11.dtd">
<svg xmlns="http://www.w3.org/2000/svg" xmlns:xlink="http://www.w3.org/1999/xlink" version="1.1" id="Capa_1" x="0px" y="0px" width="512px" height="512px" viewBox="0 0 184.404 184.404" style="enable-background:new 0 0 184.404 184.404;" xml:space="preserve">
<g>
	<g>
		<g>
			<rect y="29.487" width="21.644" height="8.163" fill="#076737"/>
			<rect y="43.294" width="21.644" height="8.159" fill="#076737"/>
			<rect y="57.098" width="21.644" height="8.163" fill="#076737"/>
			<rect x="32.556" y="57.098" width="21.641" height="8.163" fill="#076737"/>
			<rect y="70.902" width="21.644" height="8.162" fill="#076737"/>
			<rect y="84.706" width="21.644" height="8.163" fill="#076737"/>
			<rect x="32.556" y="29.487" width="21.641" height="8.163" fill="#076737"/>
			<rect x="32.556" y="43.294" width="21.641" height="8.159" fill="#076737"/>
			<rect x="97.658" y="29.487" width="21.653" height="8.163" fill="#076737"/>
			<rect x="97.658" y="43.294" width="21.653" height="8.159" fill="#076737"/>
			<rect x="97.658" y="57.098" width="21.653" height="8.163" fill="#076737"/>
			<rect x="130.21" y="29.487" width="21.641" height="8.163" fill="#076737"/>
			<rect x="130.21" y="43.294" width="21.641" height="8.159" fill="#076737"/>
			<rect x="130.21" y="57.098" width="21.641" height="8.163" fill="#076737"/>
			<rect x="162.763" y="29.487" width="21.641" height="8.163" fill="#076737"/>
			<rect x="162.763" y="43.294" width="21.641" height="8.159" fill="#076737"/>
			<rect x="162.763" y="57.098" width="21.641" height="8.163" fill="#076737"/>
			<rect x="162.763" y="70.902" width="21.641" height="8.162" fill="#076737"/>
		</g>
		<polygon points="184.404,101.911 155.352,87.389 155.352,97.6 140.867,97.6 122.618,76.857 98.571,110.936 74.449,29.487     61.854,118.425 45.121,70.665 29.356,97.6 0,97.6 0,106.283 34.333,106.283 43.142,91.261 65.458,154.917 77.463,70.217     95.32,130.566 123.354,90.851 136.926,106.283 155.352,106.283 155.352,116.439   " fill="#076737"/>
	</g>
</g>
<g>
</g>
<g>
</g>
<g>
</g>
<g>
</g>
<g>
</g>
<g>
</g>
<g>
</g>
<g>
</g>
<g>
</g>
<g>
</g>
<g>
</g>
<g>
</g>
<g>
</g>
<g>
</g>
<g>
</g>
</svg>
